<svg 
 xmlns="http://www.w3.org/2000/svg"
 xmlns:xlink="http://www.w3.org/1999/xlink"
 width="86px" height="52px">
<path fill-rule="evenodd"  fill="rgb(255, 255, 255)"
 d="M84.451,51.999 L71.496,51.999 C70.640,51.999 69.947,51.307 69.947,50.453 C69.947,49.599 70.640,48.906 71.496,48.906 L82.903,48.906 L82.903,43.844 C82.903,38.115 78.599,33.374 73.051,32.670 L66.490,39.224 C66.187,39.525 65.791,39.677 65.395,39.677 C64.998,39.677 64.602,39.525 64.300,39.224 L57.738,32.670 C52.191,33.374 47.887,38.115 47.887,43.844 L47.887,48.906 L58.798,48.906 C59.653,48.906 60.346,49.598 60.346,50.453 C60.346,51.307 59.653,51.999 58.798,51.999 L46.338,51.999 C45.483,51.999 44.790,51.307 44.790,50.453 L44.790,43.844 C44.790,36.365 50.543,30.205 57.860,29.542 C57.972,29.511 58.087,29.493 58.202,29.486 C56.506,27.706 55.462,25.300 55.462,22.654 L55.462,15.081 C55.462,10.712 59.020,7.158 63.393,7.158 L73.780,7.158 C74.635,7.158 75.328,7.850 75.328,8.705 L75.328,13.853 C75.328,14.003 75.321,14.151 75.311,14.297 C75.321,14.369 75.328,14.441 75.328,14.516 L75.328,22.654 C75.328,25.300 74.284,27.706 72.588,29.487 C72.703,29.493 72.818,29.511 72.930,29.543 C80.247,30.205 86.000,36.365 86.000,43.844 L86.000,50.453 C86.000,51.307 85.307,51.999 84.451,51.999 ZM65.395,35.943 L68.765,32.576 L62.025,32.576 L65.395,35.943 ZM72.231,10.252 L63.394,10.252 C60.728,10.252 58.559,12.418 58.559,15.081 L58.559,17.043 L58.559,17.142 L68.939,17.142 C70.755,17.142 72.231,15.667 72.231,13.853 L72.231,10.252 ZM72.231,19.320 C71.269,19.901 70.143,20.235 68.939,20.235 L58.559,20.235 L58.559,22.654 C58.559,26.419 61.626,29.483 65.395,29.483 C69.165,29.483 72.231,26.419 72.231,22.654 L72.231,19.320 ZM65.396,48.906 C65.803,48.906 66.202,49.071 66.490,49.359 C66.778,49.646 66.944,50.045 66.944,50.452 C66.944,50.861 66.778,51.258 66.490,51.546 C66.202,51.835 65.803,51.999 65.396,51.999 C64.987,51.999 64.589,51.835 64.301,51.546 C64.011,51.258 63.847,50.861 63.847,50.452 C63.847,50.045 64.011,49.646 64.301,49.359 C64.589,49.071 64.987,48.906 65.396,48.906 Z"/>
<path fill-rule="evenodd"  fill="rgb(255, 255, 255)"
 d="M46.091,52.000 L1.799,52.000 C0.806,52.000 -0.000,51.197 -0.000,50.206 L-0.000,42.543 C-0.000,33.870 6.686,26.726 15.190,25.958 C15.320,25.921 15.453,25.900 15.587,25.893 C13.615,23.828 12.402,21.038 12.402,17.970 L12.402,9.188 C12.402,4.122 16.537,0.000 21.620,0.000 L33.690,0.000 C34.683,0.000 35.489,0.804 35.489,1.795 L35.489,7.764 C35.489,7.938 35.481,8.109 35.469,8.280 C35.481,8.363 35.489,8.447 35.489,8.533 L35.489,17.970 C35.489,21.038 34.275,23.828 32.304,25.893 C32.438,25.900 32.571,25.921 32.701,25.958 C41.205,26.726 47.891,33.870 47.891,42.543 L47.891,50.206 C47.891,51.197 47.085,52.000 46.091,52.000 ZM31.890,3.588 L21.620,3.588 C18.521,3.588 16.001,6.100 16.001,9.188 L16.001,11.463 L16.001,11.578 L28.064,11.578 C30.174,11.578 31.890,9.867 31.890,7.764 L31.890,3.588 ZM31.890,14.104 C30.772,14.778 29.463,15.165 28.064,15.165 L16.001,15.165 L16.001,17.970 C16.001,22.336 19.565,25.888 23.945,25.888 C28.326,25.888 31.890,22.336 31.890,17.970 L31.890,14.104 ZM20.029,29.476 L23.945,33.380 L27.862,29.476 L20.029,29.476 ZM44.292,42.543 C44.292,35.899 39.290,30.401 32.843,29.585 L25.218,37.185 C24.880,37.521 24.423,37.710 23.945,37.710 C23.468,37.710 23.010,37.521 22.673,37.185 L15.048,29.585 C9.028,30.347 4.269,35.190 3.665,41.238 L11.067,41.238 C12.061,41.238 12.867,42.041 12.867,43.032 C12.867,44.022 12.061,44.825 11.067,44.825 L3.599,44.825 L3.599,48.413 L44.292,48.413 L44.292,42.543 ZM18.265,41.238 C18.739,41.238 19.203,41.430 19.538,41.764 C19.872,42.097 20.065,42.560 20.065,43.032 C20.065,43.503 19.872,43.966 19.538,44.300 C19.203,44.633 18.739,44.825 18.265,44.825 C17.792,44.825 17.328,44.633 16.993,44.300 C16.658,43.966 16.466,43.503 16.466,43.032 C16.466,42.560 16.658,42.097 16.993,41.764 C17.328,41.430 17.792,41.238 18.265,41.238 Z"/>
</svg>