<svg 
 xmlns="http://www.w3.org/2000/svg"
 xmlns:xlink="http://www.w3.org/1999/xlink"
 width="36px" height="30px">
<path fill-rule="evenodd"  fill="rgb(0, 0, 0)"
 d="M35.900,3.331 C35.833,4.674 35.767,6.009 35.708,7.344 C35.693,7.656 35.634,8.055 35.316,8.367 C35.227,8.454 35.123,8.527 35.005,8.592 C34.828,8.687 34.657,8.730 34.487,8.730 C34.080,8.730 33.814,8.469 33.622,8.280 L32.002,6.698 L17.683,20.748 C17.335,21.082 16.884,21.270 16.396,21.270 C15.908,21.270 15.450,21.082 15.109,20.748 L9.407,15.152 L3.438,21.009 C3.098,21.343 2.647,21.531 2.158,21.531 C1.670,21.531 1.212,21.343 0.872,21.009 L0.531,20.675 C-0.179,19.978 -0.179,18.854 0.531,18.157 L8.127,10.711 C8.467,10.377 8.919,10.189 9.407,10.189 C9.895,10.189 10.354,10.377 10.694,10.711 L16.396,16.306 L29.088,3.846 C28.718,3.491 28.348,3.128 27.986,2.765 L27.461,2.242 C27.254,2.039 26.817,1.611 27.128,0.951 C27.187,0.820 27.261,0.711 27.357,0.617 C27.661,0.319 28.045,0.305 28.326,0.290 C30.427,0.196 32.520,0.094 34.620,0.000 C34.657,0.000 34.702,0.000 34.739,0.000 C35.153,0.000 35.478,0.116 35.693,0.341 C35.922,0.574 36.018,0.900 35.996,1.321 L35.900,3.331 ZM8.253,19.289 L8.253,29.361 C8.253,29.717 7.957,30.000 7.602,30.000 L3.090,30.000 C2.728,30.000 2.440,29.710 2.440,29.361 L2.440,23.636 C3.394,23.571 4.281,23.179 4.976,22.504 L8.253,19.289 ZM16.315,23.389 L16.315,29.361 C16.315,29.717 16.019,30.000 15.664,30.000 L11.152,30.000 C10.790,30.000 10.501,29.710 10.501,29.361 L10.501,19.216 L13.600,22.257 C14.325,22.968 15.287,23.367 16.315,23.389 ZM24.377,17.177 L24.377,29.361 C24.377,29.717 24.081,30.000 23.726,30.000 L19.214,30.000 C18.852,30.000 18.563,29.710 18.563,29.361 L18.563,22.758 C18.793,22.613 19.007,22.446 19.207,22.250 L24.377,17.177 ZM32.098,9.782 C32.180,9.855 32.291,9.964 32.439,10.087 L32.439,29.361 C32.439,29.717 32.143,30.000 31.788,30.000 L27.276,30.000 C26.914,30.000 26.625,29.710 26.625,29.361 L26.625,14.964 L32.002,9.688 L32.098,9.782 Z"/>
</svg>