<svg 
 xmlns="http://www.w3.org/2000/svg"
 xmlns:xlink="http://www.w3.org/1999/xlink"
 width="33px" height="30px">
<defs>
<filter id="Filter_0">
    <feFlood flood-color="rgb(177, 177, 177)" flood-opacity="1" result="floodOut" />
    <feComposite operator="atop" in="floodOut" in2="SourceGraphic" result="compOut" />
    <feBlend mode="normal" in="compOut" in2="SourceGraphic" />
</filter>

</defs>
<g filter="url(#Filter_0)">
<path fill-rule="evenodd"  fill="rgb(38, 29, 86)"
 d="M32.211,3.661 C33.749,5.385 33.154,6.146 28.843,10.400 C27.636,11.592 26.135,12.208 24.697,12.080 L19.158,17.841 L27.753,25.892 C28.100,26.235 27.643,27.242 27.296,27.585 L26.724,28.149 C26.377,28.492 25.356,28.943 25.009,28.600 L16.911,20.178 L7.968,29.479 L7.956,29.492 L7.944,29.503 C7.715,29.729 7.306,29.999 6.661,29.999 C5.816,29.999 4.866,29.511 4.401,29.052 L3.829,28.487 C3.111,27.779 2.344,26.003 3.372,24.989 L3.383,24.978 L3.396,24.967 L12.929,16.036 L8.842,11.785 C6.921,12.799 4.628,12.223 2.904,10.520 C0.823,8.467 -1.212,4.032 0.869,1.979 C2.950,-0.076 7.443,1.933 9.523,3.987 C11.282,5.722 11.861,8.043 10.747,9.961 L15.080,14.020 L20.862,8.604 C20.575,7.075 21.193,5.440 22.505,4.145 C26.675,0.029 27.454,-0.730 29.104,0.621 L29.257,0.464 C29.354,0.368 29.601,0.456 29.680,0.534 L30.429,0.662 C30.507,0.740 30.597,0.984 30.500,1.079 L30.031,1.474 C30.264,1.703 30.510,1.947 30.790,2.223 C30.982,2.413 31.164,2.591 31.334,2.758 L31.733,2.297 C31.830,2.201 32.077,2.289 32.156,2.367 L32.286,3.106 C32.365,3.184 32.454,3.428 32.357,3.523 L32.211,3.661 Z"/>
</g>
</svg>