<svg 
 xmlns="http://www.w3.org/2000/svg"
 xmlns:xlink="http://www.w3.org/1999/xlink"
 width="43px" height="30px">
<defs>
<filter id="Filter_0">
    <feFlood flood-color="rgb(13, 13, 13)" flood-opacity="1" result="floodOut" />
    <feComposite operator="atop" in="floodOut" in2="SourceGraphic" result="compOut" />
    <feBlend mode="normal" in="compOut" in2="SourceGraphic" />
</filter>

</defs>
<g filter="url(#Filter_0)">
<path fill-rule="evenodd"  fill="rgb(45, 59, 129)"
 d="M42.748,9.272 C42.538,9.019 42.224,8.872 41.894,8.872 L37.707,8.872 C36.672,6.187 35.328,3.555 33.798,2.562 C28.505,-0.870 14.465,-0.870 9.172,2.562 C7.640,3.556 6.300,6.189 5.261,8.872 L1.074,8.872 C0.741,8.872 0.428,9.019 0.220,9.272 C0.011,9.525 -0.073,9.857 -0.005,10.177 L0.616,13.137 C0.721,13.642 1.173,14.002 1.694,14.002 L2.934,14.002 C1.737,15.363 1.156,17.076 1.149,18.791 C1.141,20.910 1.957,22.824 3.450,24.178 C3.466,24.191 3.483,24.203 3.498,24.216 L3.498,28.360 C3.498,29.257 4.239,29.988 5.151,29.988 L9.013,29.988 C9.925,29.988 10.665,29.257 10.665,28.360 L10.665,26.694 L32.302,26.694 L32.302,28.360 C32.302,29.257 33.041,29.988 33.954,29.988 L37.815,29.988 C38.726,29.988 39.468,29.257 39.468,28.360 L39.468,24.298 C41.051,22.868 41.808,20.903 41.817,18.939 C41.824,17.166 41.217,15.389 39.949,14.001 L41.272,14.001 C41.795,14.001 42.247,13.641 42.350,13.136 L42.972,10.177 C43.038,9.857 42.956,9.526 42.748,9.272 ZM10.986,5.282 C15.205,2.547 27.763,2.547 31.979,5.282 C32.799,5.812 33.853,7.953 34.819,10.574 L8.148,10.574 C9.112,7.954 10.166,5.813 10.986,5.282 ZM6.044,19.200 C6.044,17.431 7.500,15.998 9.295,15.998 C11.092,15.998 12.546,17.431 12.546,19.200 C12.546,20.969 11.092,22.403 9.295,22.403 C7.500,22.403 6.044,20.969 6.044,19.200 ZM33.715,22.403 C31.921,22.403 30.464,20.969 30.464,19.200 C30.464,17.431 31.921,15.998 33.715,15.998 C35.512,15.998 36.966,17.431 36.966,19.200 C36.966,20.969 35.510,22.403 33.715,22.403 Z"/>
</g>
</svg>