<svg xmlns="http://www.w3.org/2000/svg" width="18" height="20" viewBox="0 0 18 20">
  <defs>
    <style>
      .cls-1 {
        fill: #e99c34;
        fill-rule: evenodd;
      }
    </style>
  </defs>
  <path id="Forma_1" data-name="Forma 1" class="cls-1" d="M444.916,1007.04a2.813,2.813,0,0,1,2.011.8l7.14-4.12a1.7,1.7,0,0,1-.1-0.7,3.017,3.017,0,1,1,3.016,3.01,2.817,2.817,0,0,1-2.011-.8l-7.14,4.12a2.476,2.476,0,0,1,0,1.4l7.14,4.22a2.817,2.817,0,0,1,2.011-.8,2.915,2.915,0,1,1-2.916,2.92,1.957,1.957,0,0,1,.1-0.71l-7.14-4.22a2.817,2.817,0,0,1-2.011.8,2.957,2.957,0,0,1-3.017-3.01A2.793,2.793,0,0,1,444.916,1007.04Z" transform="translate(-442 -1000)"/>
</svg>
