<svg xmlns="http://www.w3.org/2000/svg" width="19" height="20" viewBox="0 0 19 20">
  <defs>
    <style>
      .cls-1 {
        fill: silver;
        fill-rule: evenodd;
      }
    </style>
  </defs>
  <path id="Forma_1_copy" data-name="Forma 1 copy" class="cls-1" d="M548.586,1062.42h-1.555v-1.04a1.4,1.4,0,0,0-1.413-1.38h-0.057a1.4,1.4,0,0,0-1.414,1.38v1.04h-7.294v-1.04a1.4,1.4,0,0,0-1.414-1.38h-0.057a1.4,1.4,0,0,0-1.413,1.38v1.04h-1.555A1.4,1.4,0,0,0,531,1063.8v14.82a1.4,1.4,0,0,0,1.414,1.38h16.172a1.4,1.4,0,0,0,1.414-1.38V1063.8A1.4,1.4,0,0,0,548.586,1062.42Zm-0.961,15.4h-14.25v-11.23h14.25v11.23Zm-12.313-6.15h2.46a0.225,0.225,0,0,0,.226-0.22v-2.4a0.218,0.218,0,0,0-.226-0.22h-2.46a0.218,0.218,0,0,0-.226.22v2.4A0.224,0.224,0,0,0,535.312,1071.67Zm3.958,0h2.46a0.224,0.224,0,0,0,.226-0.22v-2.4a0.218,0.218,0,0,0-.226-0.22h-2.46a0.218,0.218,0,0,0-.226.22v2.4A0.224,0.224,0,0,0,539.27,1071.67Zm3.959,0h2.459a0.224,0.224,0,0,0,.226-0.22v-2.4a0.218,0.218,0,0,0-.226-0.22h-2.459a0.219,0.219,0,0,0-.227.22v2.4A0.225,0.225,0,0,0,543.229,1071.67Zm-7.917,3.87h2.46a0.225,0.225,0,0,0,.226-0.22v-2.4a0.218,0.218,0,0,0-.226-0.22h-2.46a0.218,0.218,0,0,0-.226.22v2.4A0.224,0.224,0,0,0,535.312,1075.54Zm3.958,0h2.46a0.224,0.224,0,0,0,.226-0.22v-2.4a0.218,0.218,0,0,0-.226-0.22h-2.46a0.218,0.218,0,0,0-.226.22v2.4A0.224,0.224,0,0,0,539.27,1075.54Zm3.959,0h2.459a0.224,0.224,0,0,0,.226-0.22v-2.4a0.218,0.218,0,0,0-.226-0.22h-2.459a0.219,0.219,0,0,0-.227.22v2.4A0.225,0.225,0,0,0,543.229,1075.54Z" transform="translate(-531 -1060)"/>
</svg>
