<svg xmlns="http://www.w3.org/2000/svg" width="54.969" height="54.03" viewBox="0 0 54.969 54.03">
  <defs>
    <style>
      .cls-1 {
        fill: #fff;
        fill-rule: evenodd;
      }
    </style>
  </defs>
  <path id="Forma_1" data-name="Forma 1" class="cls-1" d="M168.677,1300.27a1.976,1.976,0,0,0-2.072-.33,30.276,30.276,0,0,0-4.455,4.73c-0.019.03-.03,0.05-0.046,0.08a0.99,0.99,0,0,0,.138,1.51c12.286,9.78,26.878,24.29,37.441,35.9,0.028,0.03.05,0.06,0.081,0.1l2.183,2.18a1.811,1.811,0,0,0,.256.2,1.181,1.181,0,0,0,1.707.02l3.381-3.39a1.2,1.2,0,0,0,.214-0.28,1.156,1.156,0,0,0,.114-1.79C195.447,1327.54,181.088,1311.68,168.677,1300.27Zm6.652,13.91q-5.135-4.65-10.487-8.97a26.992,26.992,0,0,1,2.606-2.72c3.277,3.03,6.469,6.15,9.621,9.31A9.75,9.75,0,0,1,175.329,1314.18Zm-17.292-7.23-3.982.48a1.235,1.235,0,0,0,.3,2.45l3.981-.48A1.235,1.235,0,0,0,158.037,1306.95Zm2.637-7.47c-1.408-.94-2.756-1.98-4.164-2.93-1.325-.89-2.559,1.25-1.246,2.13,1.408,0.95,2.756,1.99,4.165,2.94C160.753,1302.51,161.986,1300.37,160.674,1299.48Zm2.456-8.33a1.267,1.267,0,0,0-.442,1.69,34.169,34.169,0,0,0,1.7,3.24,1.233,1.233,0,0,0,2.131-1.24,34.4,34.4,0,0,1-1.7-3.24A1.245,1.245,0,0,0,163.13,1291.15Zm7.914,3.59-0.627,2.55a1.235,1.235,0,0,0,2.4.59l0.627-2.55A1.235,1.235,0,0,0,171.044,1294.74Z" transform="translate(-153.031 -1291)"/>
</svg>
