<svg xmlns="http://www.w3.org/2000/svg" width="20.031" height="24" viewBox="0 0 20.031 24">
  <defs>
    <style>
      .cls-1 {
        fill-rule: evenodd;
      }
    </style>
  </defs>
  <path id="Forma_1" data-name="Forma 1" class="cls-1" d="M628.205,462.173a10.153,10.153,0,0,0-16.41,0,9.454,9.454,0,0,0-1.163,8.929,7.607,7.607,0,0,0,1.449,2.323l7.261,8.28a0.881,0.881,0,0,0,1.316,0l7.259-8.278a7.582,7.582,0,0,0,1.448-2.319A9.455,9.455,0,0,0,628.205,462.173Zm-0.458,8.347a5.949,5.949,0,0,1-1.14,1.813l0,0-6.6,7.528-6.607-7.533a5.967,5.967,0,0,1-1.142-1.819,7.822,7.822,0,0,1,.965-7.387,8.4,8.4,0,0,1,13.567,0A7.82,7.82,0,0,1,627.747,470.52ZM620,462.979a4.7,4.7,0,1,0,4.841,4.7A4.776,4.776,0,0,0,620,462.979Zm0,7.72a3.022,3.022,0,1,1,3.112-3.021A3.071,3.071,0,0,1,620,470.7Z" transform="translate(-610 -458)"/>
</svg>
