<svg xmlns="http://www.w3.org/2000/svg" width="42" height="22.031" viewBox="0 0 42 22.031">
  <defs>
    <style>
      .cls-1 {
        fill: #0d0d0d;
        fill-rule: evenodd;
      }
    </style>
  </defs>
  <path id="Forma_1_copy_8" data-name="Forma 1 copy 8" class="cls-1" d="M550.027,674.669a1.246,1.246,0,0,1-1.691,0,1.061,1.061,0,0,1,0-1.562l8.571-8H520.2A1.155,1.155,0,0,1,519,664a1.167,1.167,0,0,1,1.2-1.121h36.707l-8.571-7.988a1.079,1.079,0,0,1,0-1.578,1.246,1.246,0,0,1,1.691,0l10.6,9.9a1.062,1.062,0,0,1,0,1.563Z" transform="translate(-519 -653)"/>
</svg>
