<svg xmlns="http://www.w3.org/2000/svg" width="86" height="54" viewBox="0 0 86 54">
  <defs>
    <style>
      .cls-1 {
        fill: #fff;
        fill-rule: evenodd;
      }
    </style>
  </defs>
  <path id="Forma_1_copy" data-name="Forma 1 copy" class="cls-1" d="M1037,1313.09h-1.36a8.474,8.474,0,0,0,1.77-5.19v-2.37a8.56,8.56,0,0,0-17.12,0v1.84l-12.63-12.62a6.291,6.291,0,0,0-5.32,0l-12.634,12.62v-1.84a8.557,8.557,0,0,0-17.114,0v2.37a8.494,8.494,0,0,0,1.765,5.19H973a11.01,11.01,0,0,0-11,11v22.23a1.679,1.679,0,0,0,1.68,1.68h7.1a1.7,1.7,0,0,1,.966,0h18.813a1.678,1.678,0,0,0,1.679-1.68v-5.7a1.68,1.68,0,1,0-3.359,0v4.02H973.422v-19.12a1.68,1.68,0,0,0-3.36,0v19.12h-4.7v-20.55a7.646,7.646,0,0,1,7.643-7.64h11.674a1.682,1.682,0,0,0,1.184-.49h0l17.446-17.43a18.392,18.392,0,0,1-3.16,9.74l-10.988,16.31a1.7,1.7,0,0,0-.287.94v1.84a1.68,1.68,0,0,0,3.36,0v-1.33l10.705-15.88a21.8,21.8,0,0,0,2.06-3.83,21.8,21.8,0,0,0,2.06,3.83l10.71,15.88v20.29a1.677,1.677,0,0,0,1.68,1.68h18.81a1.854,1.854,0,0,0,.48-0.07,1.919,1.919,0,0,0,.48.07h7.1a1.677,1.677,0,0,0,1.68-1.68v-22.23A11.013,11.013,0,0,0,1037,1313.09Zm-50.654-5.19a5.2,5.2,0,0,1-10.395,0v-2.37a5.2,5.2,0,0,1,10.395,0v2.37Zm37.3-2.37a5.2,5.2,0,0,1,10.4,0v2.37a5.2,5.2,0,0,1-10.4,0v-2.37Zm20.99,39.11h-4.7v-12.42a1.68,1.68,0,0,0-3.36,0v12.42h-15.46v-19.12a1.67,1.67,0,0,0-.28-0.94l-10.99-16.31a18.392,18.392,0,0,1-3.16-9.74l17.45,17.43,0.06,0.06a1.712,1.712,0,0,0,1.12.43H1037a7.652,7.652,0,0,1,7.64,7.64v20.55h0Zm-5.19-20.31a1.723,1.723,0,0,0-1.19-.49,1.705,1.705,0,0,0-1.19.49,1.69,1.69,0,0,0,0,2.38,1.705,1.705,0,0,0,1.19.49A1.683,1.683,0,0,0,1039.45,1324.33Zm-47.708,8.89a1.684,1.684,0,0,0-2.375,0,1.673,1.673,0,0,0,0,2.37,1.684,1.684,0,0,0,2.375,0A1.673,1.673,0,0,0,991.742,1333.22Z" transform="translate(-962 -1294)"/>
</svg>
