<svg 
 xmlns="http://www.w3.org/2000/svg"
 xmlns:xlink="http://www.w3.org/1999/xlink"
 width="53px" height="53px">
<path fill-rule="evenodd"  stroke-width="1px" stroke="rgb(255, 255, 255)" fill="rgb(255, 255, 255)"
 d="M26.500,52.502 C12.162,52.502 0.497,40.838 0.497,26.499 C0.497,12.162 12.162,0.497 26.500,0.497 C40.837,0.497 52.502,12.162 52.502,26.499 C52.502,40.836 40.837,52.502 26.500,52.502 ZM26.500,4.531 C14.170,4.531 4.137,14.562 4.137,26.894 C4.137,39.225 14.170,49.256 26.500,49.256 C38.829,49.256 48.860,39.224 48.860,26.892 C48.860,14.562 38.829,4.531 26.500,4.531 ZM33.326,32.272 C28.345,38.059 28.865,46.184 29.085,48.197 C28.237,48.298 27.373,48.358 26.501,48.358 C25.776,48.358 25.061,48.320 24.355,48.250 C24.532,46.855 25.394,38.149 20.145,32.048 C16.819,28.183 11.745,26.221 5.063,26.220 C5.128,24.157 5.474,22.162 6.082,20.286 C8.149,21.631 16.380,26.507 27.069,26.507 C33.122,26.507 39.963,24.933 46.915,20.281 C47.549,22.234 47.909,24.308 47.952,26.461 C41.501,26.552 36.574,28.496 33.326,32.272 ZM7.940,23.163 L7.586,23.990 L14.380,26.911 L14.734,26.087 L7.940,23.163 ZM26.501,27.286 C24.454,27.286 22.791,28.950 22.791,30.995 C22.791,33.042 24.454,34.706 26.501,34.706 C28.546,34.706 30.211,33.042 30.211,30.995 C30.211,28.950 28.546,27.286 26.501,27.286 ZM45.529,23.163 L38.734,26.087 L39.091,26.911 L45.886,23.990 L45.529,23.163 ZM26.501,33.805 C24.951,33.805 23.689,32.545 23.689,30.995 C23.689,29.447 24.951,28.187 26.501,28.187 C28.050,28.187 29.312,29.447 29.312,30.995 C29.312,32.545 28.050,33.805 26.501,33.805 Z"/>
</svg>