<svg 
 xmlns="http://www.w3.org/2000/svg"
 xmlns:xlink="http://www.w3.org/1999/xlink"
 width="16px" height="16px">
<path fill-rule="evenodd"  fill="rgb(0, 0, 0)"
 d="M8.000,16.000 C3.578,16.000 -0.000,12.421 -0.000,8.000 C-0.000,3.578 3.579,-0.000 8.000,-0.000 C12.422,-0.000 16.000,3.579 16.000,8.000 C16.000,12.422 12.421,16.000 8.000,16.000 ZM8.000,1.250 C4.269,1.250 1.250,4.269 1.250,8.000 C1.250,11.731 4.269,14.750 8.000,14.750 C11.731,14.750 14.750,11.731 14.750,8.000 C14.750,4.269 11.731,1.250 8.000,1.250 ZM8.625,8.937 L8.625,9.953 C8.625,10.298 8.345,10.578 8.000,10.578 C7.655,10.578 7.375,10.298 7.375,9.953 L7.375,8.391 C7.375,8.045 7.655,7.766 8.000,7.766 C8.689,7.766 9.250,7.205 9.250,6.516 C9.250,5.826 8.689,5.266 8.000,5.266 C7.311,5.266 6.750,5.826 6.750,6.516 C6.750,6.861 6.470,7.141 6.125,7.141 C5.780,7.141 5.500,6.861 5.500,6.516 C5.500,5.137 6.621,4.016 8.000,4.016 C9.379,4.016 10.500,5.137 10.500,6.516 C10.500,7.678 9.702,8.658 8.625,8.937 ZM8.000,11.047 C8.431,11.047 8.781,11.397 8.781,11.828 C8.781,12.260 8.431,12.609 8.000,12.609 C7.569,12.609 7.219,12.260 7.219,11.828 C7.219,11.397 7.569,11.047 8.000,11.047 Z"/>
</svg>