<svg id="investor_icon.svg" xmlns="http://www.w3.org/2000/svg" width="68" height="52" viewBox="0 0 68 52">
  <defs>
    <style>
      .cls-1 {
        fill: #fff;
        fill-rule: evenodd;
      }
    </style>
  </defs>
  <path id="Forma_1" data-name="Forma 1" class="cls-1" d="M842.434,4016.72v-8.08a4.134,4.134,0,0,1,2.012,1.59,1.432,1.432,0,0,0,2.4-1.57,6.976,6.976,0,0,0-4.408-2.97v-2.27a1.434,1.434,0,0,0-2.868,0v2.26a6.937,6.937,0,0,0,0,13.6v8.08a4.134,4.134,0,0,1-2.012-1.59,1.432,1.432,0,0,0-2.4,1.57,6.976,6.976,0,0,0,4.408,2.97v2.27a1.434,1.434,0,0,0,2.868,0v-2.26A6.937,6.937,0,0,0,842.434,4016.72Zm-5.566-4.24a4.1,4.1,0,0,1,2.7-3.84v7.68A4.1,4.1,0,0,1,836.868,4012.48Zm5.566,14.88v-7.68A4.082,4.082,0,0,1,842.434,4027.36Z" transform="translate(-780 -3982)"/>
  <path id="Forma_1_copy_5" data-name="Forma 1 copy 5" class="cls-1" d="M812.7,4007.96a1.8,1.8,0,0,0-.4-0.07,11.424,11.424,0,0,0,3.185-7.92v-9.44a1.755,1.755,0,0,0-.02-0.25c0.012-.17.02-0.34,0.02-0.52v-5.97a1.794,1.794,0,0,0-1.8-1.79H801.619a9.212,9.212,0,0,0-9.217,9.19v8.78a11.419,11.419,0,0,0,3.185,7.92,1.8,1.8,0,0,0-.4.07A16.7,16.7,0,0,0,780,4024.54v7.67a1.794,1.794,0,0,0,1.8,1.79h44.292a1.794,1.794,0,0,0,1.8-1.79v-7.67A16.7,16.7,0,0,0,812.7,4007.96Zm-16.7-14.5v-2.27a5.614,5.614,0,0,1,5.618-5.6H811.89v4.17a3.825,3.825,0,0,1-3.826,3.82H796v-0.12Zm0,3.71h12.063a7.337,7.337,0,0,0,3.826-1.07v3.87a7.945,7.945,0,0,1-15.889,0v-2.8Zm11.861,14.31-3.917,3.9-3.916-3.9h7.833Zm16.43,18.93H783.6v-3.58h7.468a1.8,1.8,0,1,0,0-3.59h-7.4a13.12,13.12,0,0,1,11.383-11.66l7.625,7.61a1.817,1.817,0,0,0,2.545,0l7.625-7.61a13.106,13.106,0,0,1,11.449,12.96v5.87Zm-24.754-6.65a1.8,1.8,0,0,0-3.072,1.27,1.8,1.8,0,0,0,.527,1.27,1.793,1.793,0,0,0,2.545,0A1.794,1.794,0,0,0,799.538,4023.76Z" transform="translate(-780 -3982)"/>
</svg>
