<svg 
 xmlns="http://www.w3.org/2000/svg"
 xmlns:xlink="http://www.w3.org/1999/xlink"
 width="67px" height="52px">
<path fill-rule="evenodd"  fill="rgb(255, 255, 255)"
 d="M61.016,52.000 L57.236,52.000 C53.944,52.000 51.266,49.328 51.252,46.024 L51.252,43.094 L15.748,43.094 L15.748,46.024 C15.734,49.328 13.056,52.000 9.764,52.000 L5.984,52.000 C2.691,52.000 0.014,49.328 0.000,46.024 L0.000,25.827 C0.000,23.414 1.059,21.116 2.892,19.550 L4.996,17.597 L10.050,3.907 C10.923,1.566 13.157,-0.000 15.648,-0.000 L52.254,-0.000 C54.745,0.014 56.979,1.566 57.852,3.907 L62.977,17.769 L64.437,19.321 C66.069,20.886 66.986,23.041 67.000,25.296 L67.000,46.024 C66.986,49.328 64.309,52.000 61.016,52.000 ZM2.863,46.024 C2.878,47.748 4.266,49.127 5.984,49.127 L9.764,49.127 C11.482,49.127 12.870,47.748 12.885,46.024 L12.885,43.094 L5.984,43.094 C4.853,43.094 3.722,42.821 2.863,42.261 L2.863,46.024 ZM55.175,4.884 C54.717,3.678 53.557,2.873 52.269,2.873 L15.648,2.873 C14.359,2.873 13.200,3.663 12.741,4.884 L8.275,16.950 L36.879,16.950 C37.509,12.655 40.873,9.280 45.153,8.647 C50.522,7.843 55.518,11.564 56.306,16.950 L59.641,16.950 L55.175,4.884 ZM39.770,16.950 L53.385,16.950 C52.813,14.235 50.708,12.124 48.017,11.549 C44.251,10.759 40.558,13.172 39.770,16.950 ZM64.122,37.147 L64.122,25.296 C64.122,23.817 63.507,22.394 62.433,21.375 C62.419,21.346 62.376,21.332 62.362,21.303 L60.987,19.823 L6.772,19.823 L4.825,21.662 C4.810,21.676 4.782,21.705 4.767,21.719 C3.565,22.739 2.863,24.248 2.863,25.827 L2.863,37.147 C2.878,38.871 4.281,40.235 5.984,40.221 L61.016,40.221 C62.719,40.235 64.122,38.856 64.137,37.147 L64.122,37.147 ZM64.137,42.261 C63.278,42.821 62.147,43.094 61.016,43.094 L54.115,43.094 L54.115,46.024 C54.130,47.734 55.518,49.127 57.236,49.127 L61.016,49.127 C62.734,49.127 64.122,47.748 64.137,46.024 L64.137,42.261 ZM58.840,35.912 L48.103,35.912 C47.315,35.912 46.671,35.265 46.671,34.475 L46.671,27.006 C46.671,26.216 47.315,25.569 48.103,25.569 L58.840,25.569 C59.627,25.569 60.271,26.216 60.271,27.006 L60.271,34.475 C60.271,35.265 59.627,35.912 58.840,35.912 ZM57.408,28.442 L49.534,28.442 L49.534,33.039 L57.408,33.039 L57.408,28.442 ZM40.415,34.475 L26.585,34.475 C25.798,34.475 25.154,33.829 25.154,33.039 C25.154,32.249 25.798,31.602 26.585,31.602 L40.415,31.602 C41.202,31.602 41.846,32.249 41.846,33.039 C41.846,33.829 41.202,34.475 40.415,34.475 ZM40.415,30.022 L26.585,30.022 C25.798,30.022 25.154,29.376 25.154,28.586 C25.154,27.796 25.798,27.149 26.585,27.149 L40.415,27.149 C41.202,27.149 41.846,27.796 41.846,28.586 C41.846,29.376 41.202,30.022 40.415,30.022 ZM18.897,35.912 L8.160,35.912 C7.373,35.912 6.729,35.265 6.729,34.475 L6.729,27.006 C6.729,26.216 7.373,25.569 8.160,25.569 L18.897,25.569 C19.685,25.569 20.329,26.216 20.329,27.006 L20.329,34.475 C20.329,35.265 19.685,35.912 18.897,35.912 ZM17.466,28.442 L9.592,28.442 L9.592,33.039 L17.466,33.039 L17.466,28.442 Z"/>
</svg>