<svg 
 xmlns="http://www.w3.org/2000/svg"
 xmlns:xlink="http://www.w3.org/1999/xlink"
 width="45px" height="52px">
<path fill-rule="evenodd"  fill="rgb(255, 255, 255)"
 d="M34.861,52.000 L10.139,52.000 C4.552,52.000 -0.000,47.481 -0.000,41.935 C-0.000,37.762 0.871,33.643 2.592,29.697 C3.964,26.562 5.870,23.524 8.255,20.681 C11.098,17.297 13.929,15.005 15.410,13.914 L9.420,4.930 C9.083,4.422 9.148,3.741 9.573,3.308 C11.609,1.232 13.689,0.259 16.129,0.259 C18.057,0.259 20.050,0.843 22.642,1.784 C22.838,1.859 23.034,1.892 23.262,1.892 C24.014,1.892 24.940,1.503 25.920,1.103 C27.161,0.584 28.588,0.000 30.145,0.000 C31.844,0.000 33.369,0.681 34.806,2.076 C35.231,2.476 35.318,3.103 35.046,3.611 L29.492,13.838 C30.962,14.908 33.848,17.222 36.745,20.681 C39.141,23.524 41.036,26.562 42.408,29.697 C44.129,33.643 45.000,37.762 45.000,41.935 C45.000,47.481 40.448,52.000 34.861,52.000 ZM32.236,3.286 C31.343,2.659 30.635,2.573 30.134,2.573 C29.100,2.573 28.032,3.016 26.911,3.481 C25.745,3.968 24.526,4.465 23.252,4.465 C22.729,4.465 22.217,4.378 21.738,4.205 C19.418,3.351 17.676,2.832 16.129,2.832 C14.681,2.832 13.472,3.308 12.208,4.389 L17.904,12.930 L27.009,12.930 L32.236,3.286 ZM34.774,22.400 C31.594,18.584 28.370,16.205 27.379,15.524 L17.599,15.524 C16.619,16.216 13.385,18.584 10.205,22.400 C5.173,28.432 2.614,35.005 2.614,41.935 C2.614,46.054 5.990,49.405 10.139,49.405 L34.861,49.405 C39.010,49.405 42.386,46.054 42.365,41.935 C42.365,34.995 39.816,28.432 34.774,22.400 ZM21.269,32.638 L24.264,32.638 C26.791,32.638 28.849,34.681 28.849,37.189 C28.849,39.676 26.835,41.708 24.330,41.741 C24.319,41.741 24.308,41.741 24.297,41.741 L24.079,41.741 L24.079,43.589 C24.079,44.303 23.491,44.887 22.772,44.887 C22.054,44.887 21.465,44.303 21.465,43.589 L21.465,41.741 L18.895,41.741 C18.176,41.741 17.588,41.157 17.588,40.443 C17.588,39.730 18.176,39.146 18.895,39.146 L24.264,39.146 C25.353,39.146 26.235,38.270 26.235,37.189 C26.235,36.108 25.353,35.232 24.264,35.232 L21.269,35.232 C18.743,35.232 16.684,33.189 16.684,30.681 C16.684,28.173 18.743,26.130 21.269,26.130 L21.455,26.130 L21.455,24.324 C21.455,23.611 22.043,23.027 22.761,23.027 C23.480,23.027 24.068,23.611 24.068,24.324 L24.068,26.130 L26.540,26.130 C27.259,26.130 27.847,26.713 27.847,27.427 C27.847,28.141 27.259,28.724 26.540,28.724 L21.269,28.724 C20.180,28.724 19.298,29.600 19.298,30.681 C19.298,31.762 20.180,32.638 21.269,32.638 Z"/>
</svg>