<svg 
 xmlns="http://www.w3.org/2000/svg"
 xmlns:xlink="http://www.w3.org/1999/xlink"
 width="18px" height="21px">
<path fill-rule="evenodd"  fill="rgb(0, 0, 0)"
 d="M7.874,19.954 C-4.490,19.071 2.597,6.900 7.640,4.475 C5.950,3.403 4.869,0.944 5.499,0.267 C6.273,-0.565 7.651,0.928 8.917,0.778 C9.809,0.649 11.656,-0.086 12.506,0.082 C13.146,0.208 12.106,3.089 10.550,4.368 C16.416,6.731 24.983,21.176 7.874,19.954 ZM9.905,9.000 L9.905,8.960 L9.905,8.459 C9.905,8.268 9.789,8.091 9.612,8.011 C9.433,7.931 9.217,7.962 9.069,8.090 C8.962,8.183 8.899,8.318 8.899,8.459 L8.899,8.960 L8.899,9.003 C8.405,9.071 7.913,9.258 7.542,9.591 C7.369,9.747 7.227,9.936 7.129,10.145 C7.024,10.369 6.977,10.613 6.979,10.859 C6.980,11.101 7.025,11.345 7.134,11.564 C7.237,11.771 7.394,11.947 7.579,12.087 C7.961,12.377 8.437,12.529 8.899,12.645 L8.899,14.593 C8.663,14.529 8.436,14.420 8.259,14.252 C8.172,14.171 8.097,14.077 8.038,13.975 C8.007,13.924 7.982,13.870 7.960,13.814 C7.939,13.758 7.926,13.699 7.907,13.643 C7.844,13.458 7.671,13.324 7.474,13.307 C7.273,13.290 7.076,13.395 6.983,13.570 C6.938,13.655 6.918,13.752 6.928,13.847 C6.934,13.904 6.951,13.959 6.968,14.014 C6.986,14.074 7.007,14.133 7.031,14.192 C7.121,14.416 7.251,14.623 7.410,14.805 C7.730,15.172 8.169,15.419 8.641,15.546 C8.726,15.569 8.812,15.588 8.899,15.604 L8.899,16.177 C8.899,16.368 9.015,16.545 9.192,16.625 C9.371,16.705 9.588,16.674 9.735,16.546 C9.843,16.453 9.905,16.318 9.905,16.177 L9.905,15.653 C10.411,15.613 10.920,15.470 11.325,15.162 C11.710,14.871 11.967,14.442 12.019,13.967 C12.059,13.610 11.999,13.233 11.816,12.918 C11.852,12.978 11.885,13.036 11.815,12.915 C11.744,12.792 11.778,12.852 11.814,12.913 C11.584,12.521 11.186,12.272 10.765,12.110 C10.487,12.002 10.196,11.928 9.905,11.860 L9.905,9.996 C10.150,10.038 10.394,10.114 10.596,10.260 C10.689,10.327 10.771,10.409 10.834,10.504 C10.866,10.553 10.894,10.605 10.916,10.659 C10.937,10.713 10.948,10.770 10.969,10.823 C11.040,11.004 11.219,11.130 11.417,11.139 C11.618,11.147 11.809,11.033 11.895,10.855 C11.936,10.768 11.951,10.670 11.937,10.574 C11.928,10.515 11.908,10.456 11.889,10.399 C11.869,10.338 11.845,10.277 11.818,10.219 C11.721,10.008 11.584,9.815 11.416,9.653 C11.061,9.311 10.587,9.115 10.102,9.029 C10.037,9.018 9.971,9.008 9.905,9.000 ZM8.249,11.347 C8.158,11.287 8.070,11.211 8.028,11.109 C7.984,11.002 7.977,10.875 7.989,10.761 C8.000,10.647 8.041,10.540 8.107,10.446 C8.283,10.195 8.605,10.064 8.899,10.002 L8.899,11.622 C8.783,11.587 8.674,11.551 8.578,11.513 C8.464,11.468 8.352,11.415 8.249,11.347 ZM10.870,13.308 C10.941,13.385 10.985,13.477 11.006,13.578 C11.045,13.764 11.026,13.970 10.930,14.137 C10.729,14.487 10.289,14.623 9.905,14.666 L9.905,12.875 C10.141,12.936 10.379,13.003 10.597,13.114 C10.697,13.165 10.793,13.226 10.870,13.308 Z"/>
</svg>