<svg 
 xmlns="http://www.w3.org/2000/svg"
 xmlns:xlink="http://www.w3.org/1999/xlink"
 width="16px" height="20px">
<path fill-rule="evenodd"  fill="rgb(0, 0, 0)"
 d="M15.030,17.377 C15.031,17.065 15.032,17.332 15.030,17.377 ZM7.516,20.000 C1.108,20.000 0.002,17.743 0.002,17.743 C0.002,17.481 0.002,17.330 0.001,17.249 C0.003,17.292 0.006,17.273 0.013,16.898 C0.097,12.317 0.742,10.996 5.337,10.157 C5.337,10.157 5.991,11.000 7.516,11.000 C9.040,11.000 9.694,10.157 9.694,10.157 C14.341,11.005 14.948,12.346 15.022,17.051 C15.026,17.352 15.029,17.404 15.030,17.377 C15.030,17.457 15.030,17.574 15.030,17.743 C15.030,17.743 13.923,20.000 7.516,20.000 ZM0.001,17.249 C0.000,17.202 0.001,17.084 0.001,17.249 ZM7.516,9.781 C5.319,9.781 3.537,7.592 3.537,4.891 C3.537,2.190 4.122,-0.000 7.516,-0.000 C10.910,-0.000 11.494,2.190 11.494,4.891 C11.494,7.592 9.713,9.781 7.516,9.781 Z"/>
</svg>