<svg 
 xmlns="http://www.w3.org/2000/svg"
 xmlns:xlink="http://www.w3.org/1999/xlink"
 width="59px" height="59px">
<path fill-rule="evenodd"  stroke-width="3px" stroke="rgb(255, 255, 255)" fill-opacity="0" fill="rgb(255, 255, 255)"
 d="M29.500,6.500 C16.797,6.500 6.500,16.798 6.500,29.500 C6.500,42.202 16.797,52.500 29.500,52.500 C42.202,52.500 52.500,42.202 52.500,29.500 C52.500,16.798 42.202,6.500 29.500,6.500 ZM39.443,33.874 L29.692,33.874 C29.659,33.874 29.628,33.866 29.596,33.865 C29.563,33.866 29.533,33.874 29.499,33.874 C28.621,33.874 27.909,33.162 27.909,32.283 L27.909,16.045 C27.909,15.167 28.621,14.454 29.499,14.454 C30.378,14.454 31.090,15.167 31.090,16.045 L31.090,30.693 L39.442,30.693 C40.321,30.693 41.033,31.405 41.033,32.283 C41.033,33.162 40.321,33.874 39.443,33.874 Z"/>
</svg>