<svg xmlns="http://www.w3.org/2000/svg"
 xmlns:xlink="http://www.w3.org/1999/xlink" title="Arrow counter clockwise (outlined)" viewBox="0 0 36 36"><path fill-rule="evenodd" clip-rule="evenodd" d="M18 36C27.9411 36 36 27.9411 36 18C36 8.05888 27.9411 0 18 0C8.05888 0 0 8.05888 0 18C0 27.9411 8.05888 36 18 36Z" fill="#77797A"></path><path d="M18 10.6666C13.9333 10.6666 10.6666 13.9333 10.6666 18C10.6666 22.0666 13.9333 25.3333 18 25.3333C22.0666 25.3333 25.3333 22.0666 25.3333 18C25.3333 13.9333 22.0666 10.6666 18 10.6666ZM22 19.3333H16.6666V12.6666H18.6666V17.3333H22V19.3333Z" fill="white"></path></svg>