<svg 
 xmlns="http://www.w3.org/2000/svg"
 xmlns:xlink="http://www.w3.org/1999/xlink"
 width="32px" height="30px">
<path fill-rule="evenodd"  fill="rgb(0, 0, 0)"
 d="M29.921,19.224 C27.954,17.976 26.362,18.162 25.069,18.483 L25.295,19.100 C25.701,19.002 26.125,18.949 26.561,18.949 C29.560,18.949 32.000,21.428 32.000,24.475 C32.000,27.521 29.560,30.000 26.561,30.000 C23.562,30.000 21.122,27.521 21.122,24.475 C21.122,22.402 22.251,20.593 23.916,19.647 L23.719,19.108 C23.058,19.437 21.138,20.662 20.001,24.174 C19.960,24.302 19.842,24.386 19.713,24.386 C19.703,24.386 19.693,24.386 19.682,24.384 L12.144,24.384 C12.144,24.414 12.145,24.444 12.145,24.475 C12.145,27.521 9.705,30.000 6.706,30.000 C3.707,30.000 1.267,27.521 1.267,24.475 C1.267,21.960 2.929,19.832 5.195,19.166 L1.165,18.354 C1.076,18.336 1.000,18.279 0.957,18.198 L0.051,16.492 C-0.000,16.397 0.003,16.281 0.057,16.187 C0.112,16.095 0.211,16.038 0.318,16.038 C0.318,16.038 0.318,16.038 0.318,16.038 L10.943,16.039 L8.464,14.310 C7.821,13.850 7.695,12.966 8.119,12.292 C8.531,11.637 10.282,8.659 11.721,6.443 C12.666,4.989 14.407,4.786 15.570,5.335 C16.717,5.827 17.590,6.988 17.590,6.988 L21.357,12.158 C21.413,12.234 21.456,12.316 21.491,12.401 L22.920,12.608 L23.242,13.483 L23.485,13.483 C24.132,13.483 25.328,14.016 25.328,14.674 L25.328,15.627 C25.328,15.828 25.278,16.017 25.192,16.183 C26.421,16.307 28.621,16.700 30.705,17.949 C31.057,18.160 31.157,18.632 30.940,18.985 C30.724,19.337 30.268,19.444 29.921,19.224 ZM10.653,24.179 L7.307,25.427 C7.223,25.458 7.137,25.473 7.052,25.473 C6.751,25.473 6.468,25.284 6.358,24.980 C6.217,24.591 6.414,24.158 6.797,24.015 L10.268,22.721 C9.626,21.379 8.271,20.452 6.706,20.452 C4.523,20.452 2.746,22.256 2.746,24.475 C2.746,26.692 4.523,28.497 6.706,28.497 C8.889,28.497 10.665,26.692 10.665,24.475 C10.665,24.375 10.660,24.276 10.653,24.179 ZM21.840,13.970 L20.989,13.846 C20.527,14.102 19.945,13.998 19.596,13.592 L16.251,9.673 L13.575,15.042 L16.490,17.656 C17.062,16.949 18.105,16.097 19.826,16.062 L22.597,16.061 L21.840,13.970 ZM22.602,24.475 C22.602,26.692 24.378,28.497 26.561,28.497 C28.744,28.497 30.520,26.692 30.520,24.475 C30.520,22.256 28.744,20.452 26.561,20.452 C26.306,20.452 26.057,20.478 25.816,20.525 L27.254,24.459 C27.397,24.848 27.202,25.281 26.819,25.426 C26.734,25.458 26.647,25.473 26.561,25.473 C26.261,25.473 25.978,25.285 25.867,24.983 L24.440,21.080 C23.336,21.795 22.602,23.049 22.602,24.475 ZM17.081,5.312 C15.640,5.140 14.609,3.816 14.777,2.352 C14.946,0.888 16.250,-0.159 17.691,0.012 C19.131,0.183 20.163,1.508 19.994,2.972 C19.826,4.435 18.521,5.483 17.081,5.312 Z"/>
</svg>