<svg 
 xmlns="http://www.w3.org/2000/svg"
 xmlns:xlink="http://www.w3.org/1999/xlink"
 width="43px" height="30px">
<path fill-rule="evenodd"  fill="rgb(177, 177, 177)"
 d="M43.000,17.561 L37.924,28.019 C37.289,29.235 36.020,30.000 34.635,30.000 L4.706,30.000 C4.154,30.000 3.796,29.425 4.045,28.938 L4.058,28.914 C4.464,28.119 4.223,27.150 3.490,26.633 L3.449,26.603 C1.749,25.401 0.740,23.462 0.740,21.396 L0.740,19.024 L27.385,19.024 L27.385,19.010 C27.385,18.209 28.041,17.561 28.851,17.561 L43.000,17.561 L43.000,17.561 ZM25.905,8.781 L20.724,8.781 C20.315,8.781 19.984,9.108 19.984,9.512 L19.984,17.561 C19.984,17.965 20.315,18.293 20.724,18.293 L25.905,18.293 C26.314,18.293 26.645,17.965 26.645,17.561 L26.645,9.512 C26.645,9.108 26.314,8.781 25.905,8.781 ZM34.787,11.707 L28.865,11.707 C28.457,11.707 28.125,12.035 28.125,12.439 L28.125,15.366 C28.125,15.770 28.457,16.097 28.865,16.097 L34.787,16.097 C35.195,16.097 35.527,15.770 35.527,15.366 L35.527,12.439 C35.527,12.035 35.195,11.707 34.787,11.707 ZM11.842,18.293 L17.763,18.293 C18.172,18.293 18.503,17.965 18.503,17.561 L18.503,11.707 C18.503,11.303 18.172,10.976 17.763,10.976 L11.842,10.976 C11.433,10.976 11.102,11.303 11.102,11.707 L11.102,17.561 C11.102,17.965 11.433,18.293 11.842,18.293 ZM11.463,7.317 L9.622,8.781 L9.622,18.293 L2.220,18.293 L2.220,8.781 L-0.000,8.781 L-0.000,7.317 L5.181,7.317 L5.181,5.195 L3.268,5.195 L3.268,4.341 L5.181,4.341 L5.181,-0.000 L5.921,-0.000 L5.921,4.341 L7.835,4.341 L7.835,5.195 L5.921,5.195 L5.921,7.317 L11.463,7.317 ZM8.285,13.337 L5.876,13.337 L5.876,15.523 L8.285,15.523 L8.285,13.337 ZM8.285,9.836 L5.876,9.836 L5.876,12.021 L8.285,12.021 L8.285,9.836 Z"/>
</svg>