<svg 
 xmlns="http://www.w3.org/2000/svg"
 xmlns:xlink="http://www.w3.org/1999/xlink"
 width="26px" height="31px">
<defs>
<filter id="Filter_0">
    <feFlood flood-color="rgb(177, 177, 177)" flood-opacity="1" result="floodOut" />
    <feComposite operator="atop" in="floodOut" in2="SourceGraphic" result="compOut" />
    <feBlend mode="normal" in="compOut" in2="SourceGraphic" />
</filter>

</defs>
<g filter="url(#Filter_0)">
<path fill-rule="evenodd"  fill="rgb(75, 78, 83)"
 d="M24.760,25.520 L24.760,20.894 C24.760,19.900 23.938,19.094 22.925,19.094 L22.445,19.094 L22.445,2.206 C22.445,2.054 22.368,1.913 22.240,1.830 L21.075,1.075 C20.770,0.877 20.363,1.091 20.363,1.450 L20.363,6.874 L20.016,5.956 C19.549,4.721 18.348,3.901 17.006,3.901 L8.987,3.901 C7.636,3.901 6.430,4.731 5.969,5.976 L5.637,6.874 L5.637,1.450 C5.637,1.092 5.230,0.877 4.925,1.075 L3.760,1.830 C3.632,1.913 3.555,2.054 3.555,2.206 L3.555,19.094 L3.075,19.094 C2.062,19.094 1.240,19.900 1.240,20.894 L1.240,25.520 L0.459,25.520 C0.205,25.520 -0.000,25.722 -0.000,25.971 L-0.000,28.458 C-0.000,28.706 0.205,28.908 0.459,28.908 L2.437,28.908 L2.437,30.100 C2.437,30.597 2.848,31.000 3.355,31.000 L5.786,31.000 C6.292,31.000 6.703,30.597 6.703,30.100 L6.703,28.908 L19.297,28.908 L19.297,30.100 C19.297,30.597 19.708,31.000 20.214,31.000 L22.645,31.000 C23.152,31.000 23.563,30.597 23.563,30.100 L23.563,28.908 L25.541,28.908 C25.795,28.908 26.000,28.706 26.000,28.458 L26.000,25.971 C26.000,25.722 25.795,25.520 25.541,25.520 L24.760,25.520 L24.760,25.520 ZM6.244,9.381 L19.756,9.381 L19.756,13.814 L6.244,13.814 L6.244,9.381 ZM5.930,24.261 L4.363,24.261 C3.884,24.261 3.496,23.880 3.496,23.411 L3.496,23.390 C3.496,22.920 3.884,22.539 4.363,22.539 L5.930,22.539 C6.409,22.539 6.797,22.920 6.797,23.390 L6.797,23.411 C6.797,23.880 6.409,24.261 5.930,24.261 ZM16.118,24.512 L9.882,24.512 C9.375,24.512 8.964,24.109 8.964,23.612 L8.964,17.911 C8.964,17.413 9.375,17.010 9.882,17.010 L16.118,17.010 C16.625,17.010 17.036,17.413 17.036,17.911 L17.036,23.612 C17.036,24.109 16.625,24.512 16.118,24.512 ZM21.637,24.261 L20.070,24.261 C19.591,24.261 19.203,23.880 19.203,23.411 L19.203,23.390 C19.203,22.920 19.591,22.539 20.070,22.539 L21.637,22.539 C22.116,22.539 22.504,22.920 22.504,23.390 L22.504,23.411 C22.504,23.880 22.116,24.261 21.637,24.261 ZM15.979,20.304 L10.007,20.304 C9.756,20.304 9.553,20.104 9.553,19.859 L9.553,19.849 C9.553,19.603 9.756,19.404 10.007,19.404 L15.979,19.404 C16.230,19.404 16.433,19.603 16.433,19.849 L16.433,19.859 C16.433,20.104 16.230,20.304 15.979,20.304 ZM15.979,18.504 L10.007,18.504 C9.756,18.504 9.553,18.305 9.553,18.058 L9.553,18.050 C9.553,17.803 9.756,17.604 10.007,17.604 L15.979,17.604 C16.230,17.604 16.433,17.803 16.433,18.050 L16.433,18.058 C16.433,18.305 16.230,18.504 15.979,18.504 ZM15.979,23.903 L10.007,23.903 C9.756,23.903 9.553,23.704 9.553,23.458 L9.553,23.449 C9.553,23.203 9.756,23.003 10.007,23.003 L15.979,23.003 C16.230,23.003 16.433,23.203 16.433,23.449 L16.433,23.458 C16.433,23.704 16.230,23.903 15.979,23.903 ZM15.979,22.103 L10.007,22.103 C9.756,22.103 9.553,21.904 9.553,21.658 L9.553,21.649 C9.553,21.403 9.756,21.204 10.007,21.204 L15.979,21.204 C16.230,21.204 16.433,21.403 16.433,21.649 L16.433,21.658 C16.433,21.904 16.230,22.103 15.979,22.103 Z"/>
</g>
</svg>