<svg 
 xmlns="http://www.w3.org/2000/svg"
 xmlns:xlink="http://www.w3.org/1999/xlink"
 width="34px" height="41px">
<path fill-rule="evenodd"  fill="rgb(233, 156, 52)"
 d="M30.718,14.932 C30.145,14.565 29.390,14.744 29.033,15.333 C28.676,15.921 28.851,16.695 29.424,17.061 C30.758,17.915 31.554,19.387 31.554,21.000 C31.554,22.613 30.758,24.085 29.424,24.939 L9.363,37.773 C7.948,38.679 6.232,38.723 4.774,37.893 C3.316,37.063 2.446,35.545 2.446,33.834 L2.446,8.166 C2.446,6.455 3.316,4.938 4.774,4.107 C6.232,3.277 7.948,3.322 9.363,4.227 L21.041,11.698 C21.615,12.065 22.369,11.886 22.726,11.297 C23.084,10.709 22.909,9.935 22.336,9.568 L10.658,2.098 C8.477,0.703 5.835,0.634 3.587,1.913 C1.341,3.192 -0.000,5.529 -0.000,8.166 L-0.000,33.834 C-0.000,36.471 1.341,38.808 3.588,40.087 C4.658,40.696 5.817,41.000 6.975,41.000 C8.247,41.000 9.516,40.633 10.658,39.903 L30.718,27.068 C32.773,25.753 34.000,23.485 34.000,21.000 C34.000,18.515 32.773,16.247 30.718,14.932 Z"/>
</svg>