<svg 
 xmlns="http://www.w3.org/2000/svg"
 xmlns:xlink="http://www.w3.org/1999/xlink"
 width="34px" height="31px">
<path fill-rule="evenodd"  fill="rgb(177, 177, 177)"
 d="M33.049,9.188 L33.049,13.191 C33.049,13.746 32.601,14.191 32.046,14.191 L31.043,14.191 L31.043,8.187 L32.046,8.187 C32.601,8.187 33.049,8.637 33.049,9.188 ZM10.982,0.182 L23.019,0.182 C26.342,0.182 29.037,2.871 29.037,6.186 L29.037,24.198 C29.037,25.304 28.140,26.199 27.032,26.199 L27.032,28.201 C27.032,29.307 26.134,30.202 25.025,30.202 L23.019,30.202 C21.910,30.202 21.013,29.307 21.013,28.201 L21.013,26.199 L12.988,26.199 L12.988,28.201 C12.988,29.307 12.091,30.202 10.982,30.202 L8.976,30.202 C7.867,30.202 6.970,29.307 6.970,28.201 L6.970,26.199 C5.861,26.199 4.963,25.304 4.963,24.198 L4.963,6.186 C4.963,2.871 7.659,0.182 10.982,0.182 ZM10.982,22.197 C10.982,21.091 10.084,20.195 8.976,20.195 C7.867,20.195 6.970,21.091 6.970,22.197 C6.970,23.303 7.867,24.198 8.976,24.198 C10.084,24.198 10.982,23.303 10.982,22.197 ZM27.032,22.197 C27.032,21.091 26.134,20.195 25.025,20.195 C23.916,20.195 23.019,21.091 23.019,22.197 C23.019,23.303 23.916,24.198 25.025,24.198 C26.134,24.198 27.032,23.303 27.032,22.197 ZM6.969,6.186 L6.969,18.194 L27.032,18.194 L27.032,6.186 L6.969,6.186 ZM12.988,4.185 L21.012,4.185 L21.012,2.184 L12.988,2.184 L12.988,4.185 ZM2.957,14.191 L2.957,8.187 L1.954,8.187 C1.399,8.187 0.951,8.637 0.951,9.188 L0.951,13.191 C0.951,13.746 1.399,14.191 1.954,14.191 L2.957,14.191 Z"/>
</svg>