<svg 
 xmlns="http://www.w3.org/2000/svg"
 xmlns:xlink="http://www.w3.org/1999/xlink"
 width="25px" height="30px">
<defs>
<filter id="Filter_0">
    <feFlood flood-color="rgb(13, 13, 13)" flood-opacity="1" result="floodOut" />
    <feComposite operator="atop" in="floodOut" in2="SourceGraphic" result="compOut" />
    <feBlend mode="normal" in="compOut" in2="SourceGraphic" />
</filter>

</defs>
<g filter="url(#Filter_0)">
<path fill-rule="evenodd"  fill="rgb(75, 78, 83)"
 d="M12.500,-0.000 C5.625,-0.000 -0.000,0.789 -0.000,6.316 L-0.000,21.316 C-0.000,24.316 2.500,26.842 5.469,26.842 L3.125,29.210 L3.125,30.000 L21.875,30.000 L21.875,29.210 L19.531,26.842 C22.500,26.842 25.000,24.316 25.000,21.316 L25.000,6.316 C25.000,0.789 19.375,-0.000 12.500,-0.000 ZM5.469,23.684 C4.219,23.684 3.125,22.579 3.125,21.316 C3.125,20.052 4.219,18.947 5.469,18.947 C6.719,18.947 7.812,20.052 7.812,21.316 C7.812,22.579 6.719,23.684 5.469,23.684 ZM10.937,14.210 L3.125,14.210 L3.125,6.316 L10.937,6.316 L10.937,14.210 ZM19.531,23.684 C18.281,23.684 17.188,22.579 17.188,21.316 C17.188,20.052 18.281,18.947 19.531,18.947 C20.781,18.947 21.875,20.052 21.875,21.316 C21.875,22.579 20.781,23.684 19.531,23.684 ZM21.875,14.210 L14.062,14.210 L14.062,6.316 L21.875,6.316 L21.875,14.210 Z"/>
</g>
</svg>