<svg 
 xmlns="http://www.w3.org/2000/svg"
 xmlns:xlink="http://www.w3.org/1999/xlink"
 width="45px" height="30px">
<path fill-rule="evenodd"  fill="rgb(0, 0, 0)"
 d="M43.753,20.278 C41.511,18.271 37.940,18.100 35.258,20.612 C34.130,21.668 33.746,23.202 33.752,24.746 C33.754,25.163 33.417,25.500 33.002,25.500 L13.441,25.500 C13.075,28.040 10.890,30.000 8.251,30.000 C5.611,30.000 3.426,28.040 3.060,25.500 L2.250,25.500 C1.836,25.500 1.500,25.164 1.500,24.750 L1.500,19.500 L0.750,19.500 C0.336,19.500 0.000,19.164 0.000,18.750 L0.000,15.750 C0.000,15.336 0.336,15.000 0.750,15.000 L1.500,15.000 L1.500,13.875 C1.500,13.668 1.668,13.500 1.875,13.500 L14.626,13.500 C14.833,13.500 15.001,13.668 15.001,13.875 L15.001,14.534 C15.001,14.634 15.041,14.729 15.111,14.800 L17.781,17.470 C17.922,17.611 18.001,17.801 18.001,18.000 L18.001,20.625 C18.001,20.832 18.169,21.000 18.376,21.000 L22.877,21.000 C23.084,21.000 23.252,20.832 23.252,20.625 L23.252,4.875 C23.252,4.668 23.084,4.500 22.877,4.500 L15.376,4.500 C15.168,4.500 15.001,4.668 15.001,4.875 L15.001,11.625 C15.001,11.832 14.833,12.000 14.626,12.000 L1.875,12.000 C1.668,12.000 1.500,11.832 1.500,11.625 L1.500,6.750 C1.500,3.406 4.304,0.530 7.500,-0.000 C8.251,-0.000 31.502,-0.000 31.502,-0.000 C31.528,-0.000 31.553,0.001 31.578,0.004 C36.363,0.488 39.318,8.704 40.314,12.000 L41.253,12.000 C41.667,12.000 42.003,12.336 42.003,12.750 L42.003,15.000 C42.003,15.414 41.667,15.750 41.253,15.750 L39.003,15.750 L39.003,17.288 C39.249,17.263 39.499,17.250 39.753,17.250 C41.602,17.250 43.378,17.928 44.753,19.160 C45.062,19.436 45.088,19.910 44.812,20.219 C44.535,20.528 44.062,20.554 43.753,20.278 ZM31.393,4.500 L25.127,4.500 C24.919,4.500 24.752,4.668 24.752,4.875 L24.752,11.625 C24.752,11.832 24.919,12.000 25.127,12.000 L33.233,12.000 C33.481,12.000 33.660,11.765 33.595,11.526 L31.754,4.776 C31.710,4.613 31.561,4.500 31.393,4.500 ZM34.574,3.495 C34.451,3.350 34.238,3.327 34.079,3.433 L33.342,3.924 C33.208,4.013 33.146,4.179 33.188,4.335 L35.044,11.139 C35.107,11.367 35.363,11.481 35.574,11.375 L37.800,10.262 C37.973,10.176 38.053,9.972 37.985,9.792 C37.062,7.347 35.900,5.051 34.574,3.495 ZM40.128,20.250 C42.815,20.250 45.003,22.437 45.003,25.125 C45.003,27.813 42.815,30.000 40.128,30.000 C37.440,30.000 35.252,27.813 35.252,25.125 C35.253,22.437 37.440,20.250 40.128,20.250 Z"/>
</svg>